<?xml version="1.0" encoding="utf-8"?>
<!-- Generator: Adobe Illustrator 16.0.0, SVG Export Plug-In . SVG Version: 6.00 Build 0)  -->
<!DOCTYPE svg PUBLIC "-//W3C//DTD SVG 1.1//EN" "http://www.w3.org/Graphics/SVG/1.1/DTD/svg11.dtd">
<svg version="1.1" id="Слой_1" xmlns="http://www.w3.org/2000/svg" xmlns:xlink="http://www.w3.org/1999/xlink" x="0px" y="0px"
	 width="13.108px" height="22.36px" viewBox="0 0 13.108 22.36" enable-background="new 0 0 13.108 22.36" xml:space="preserve">
<g display="none">
	<g display="inline" opacity="0.3">
		<path fill="#FFFFFF" d="M3.785,2.61c0.805,0.785,8.678,9.052,8.678,9.052c0.43,0.419,0.645,0.969,0.645,1.519
			s-0.215,1.1-0.645,1.519c0,0-7.874,8.267-8.678,9.052c-0.806,0.786-2.254,0.84-3.115,0c-0.859-0.838-0.928-2.008,0-3.036
			l7.223-7.534L0.67,5.647c-0.928-1.029-0.859-2.199,0-3.037C1.531,1.77,2.979,1.824,3.785,2.61z"/>
	</g>
	<g display="inline">
		<path fill="#BC4C27" d="M3.785,0.61c0.805,0.785,8.678,9.052,8.678,9.052c0.43,0.419,0.645,0.969,0.645,1.519
			s-0.215,1.1-0.645,1.519c0,0-7.874,8.267-8.678,9.052c-0.806,0.786-2.254,0.84-3.115,0c-0.859-0.838-0.928-2.008,0-3.036
			l7.223-7.534L0.67,3.647c-0.928-1.029-0.859-2.199,0-3.037C1.531-0.23,2.979-0.176,3.785,0.61z"/>
	</g>
</g>
<g>
	<g>
		<path fill="#713416" d="M3.785,0.61c0.805,0.785,8.678,9.052,8.678,9.052c0.43,0.419,0.645,0.969,0.645,1.519
			s-0.215,1.1-0.645,1.519c0,0-7.874,8.267-8.678,9.052c-0.806,0.786-2.254,0.84-3.115,0c-0.859-0.838-0.928-2.008,0-3.036
			l7.223-7.534L0.67,3.647c-0.928-1.029-0.859-2.199,0-3.037C1.531-0.23,2.979-0.176,3.785,0.61z"/>
	</g>
</g>
</svg>
