<?xml version="1.0" encoding="utf-8"?>
<!-- Generator: Adobe Illustrator 16.0.0, SVG Export Plug-In . SVG Version: 6.00 Build 0)  -->
<!DOCTYPE svg PUBLIC "-//W3C//DTD SVG 1.1//EN" "http://www.w3.org/Graphics/SVG/1.1/DTD/svg11.dtd">
<svg version="1.1" id="Слой_1" xmlns="http://www.w3.org/2000/svg" xmlns:xlink="http://www.w3.org/1999/xlink" x="0px" y="0px"
	 width="44.667px" height="41.309px" viewBox="0 0 44.667 41.309" enable-background="new 0 0 44.667 41.309" xml:space="preserve">
<g>
	<g opacity="0.5">
		<path fill="#0D0F0F" d="M19.42,2c10.563,0,19.15,8.461,19.409,18.996h5.838l-8.739,9.742l-8.74-9.742h6.785
			C33.717,13.152,27.302,6.871,19.42,6.871c-8.044,0-14.566,6.542-14.566,14.612s6.521,14.612,14.566,14.612
			c3.226,0,6.205-1.054,8.619-2.835l3.34,3.574c-3.297,2.587-7.448,4.132-11.958,4.132C8.694,40.966,0,32.244,0,21.483
			C0,10.723,8.694,2,19.42,2z"/>
	</g>
	<g>
		<g>
			<g>
				<path fill="#FFFFFF" d="M19.42,0c10.563,0,19.15,8.461,19.409,18.996h5.838l-8.739,9.742l-8.74-9.742h6.785
					C33.717,11.152,27.302,4.871,19.42,4.871c-8.044,0-14.566,6.542-14.566,14.612s6.521,14.612,14.566,14.612
					c3.226,0,6.205-1.054,8.619-2.835l3.34,3.574c-3.297,2.587-7.448,4.132-11.958,4.132C8.694,38.966,0,30.244,0,19.483
					C0,8.723,8.694,0,19.42,0z"/>
			</g>
		</g>
	</g>
</g>
</svg>
