<svg xmlns="http://www.w3.org/2000/svg" width="444" height="444"><g fill="#fff"><path opacity=".3" d="M222.85 9.001c-118.106 0-213.85 95.745-213.85 213.85 0 118.106 95.744 213.851 213.85 213.851s213.851-95.744 213.851-213.851c-.001-118.105-95.745-213.85-213.851-213.85zm0 395.229c-100.172 0-181.378-81.207-181.378-181.38 0-100.172 81.206-181.378 181.378-181.378 100.173 0 181.38 81.206 181.38 181.378-.001 100.173-81.208 181.38-181.38 181.38z"/><path opacity=".3" d="M222.85 74.491c-81.936 0-148.359 66.423-148.359 148.359 0 81.939 66.424 148.36 148.359 148.36 81.939 0 148.359-66.421 148.359-148.36 0-81.935-66.42-148.359-148.359-148.359zm0 260.107c-61.716 0-111.746-50.03-111.746-111.747 0-61.715 50.03-111.745 111.746-111.745 61.717 0 111.747 50.03 111.747 111.745 0 61.716-50.031 111.747-111.747 111.747z"/></g><g fill="#fff"><polygon points="432,432 386,432 386,444 444,444 444,384 432,384"/><polygon points="444,0 386,0 386,12 432,12 432,60 444,60"/><polygon points="0,444 60,444 60,432 12,432 12,384 0,384"/><polygon points="12,12 60,12 60,0 0,0 0,60 12,60"/></g></svg>