<?xml version="1.0" encoding="utf-8"?>
<!-- Generator: Adobe Illustrator 16.0.0, SVG Export Plug-In . SVG Version: 6.00 Build 0)  -->
<!DOCTYPE svg PUBLIC "-//W3C//DTD SVG 1.1//EN" "http://www.w3.org/Graphics/SVG/1.1/DTD/svg11.dtd">
<svg version="1.1" id="Слой_1" xmlns="http://www.w3.org/2000/svg" xmlns:xlink="http://www.w3.org/1999/xlink" x="0px" y="0px"
	 width="76.312px" height="60.723px" viewBox="0 0 76.312 60.723" enable-background="new 0 0 76.312 60.723" xml:space="preserve">
<g display="none">
	<g display="inline">
		<g opacity="0.3">
			<path fill="#FFFFFF" d="M12.491,16.628c-0.318-2.249,1.261-4.351,3.51-4.67l52.47-7.433c2.249-0.319,4.35,1.262,4.668,3.51
				l3.132,22.115c0.319,2.248-1.261,4.35-3.51,4.667l-52.47,7.435c-2.25,0.318-4.35-1.262-4.668-3.512L12.491,16.628z"/>
		</g>
		<g>
			<path fill="#BD4B17" d="M12.491,14.628c-0.318-2.249,1.261-4.351,3.51-4.67l52.47-7.433c2.249-0.319,4.35,1.262,4.668,3.51
				l3.132,22.115c0.319,2.248-1.261,4.35-3.51,4.667l-52.47,7.435c-2.25,0.318-4.35-1.262-4.668-3.512L12.491,14.628z"/>
		</g>
	</g>
	<g display="inline">
		<g opacity="0.3">
			<path fill="#FFFFFF" d="M20.752,45.516c-4.055,0.573-7.82-2.258-8.394-6.313l-1.285-9.071l-6.521,0.924
				c-2.25,0.319-3.829,2.42-3.51,4.669l3.132,22.114c0.318,2.249,2.419,3.829,4.668,3.51l52.47-7.433
				c2.249-0.32,3.829-2.42,3.51-4.669l-1.385-9.779L20.752,45.516z"/>
		</g>
		<g>
			<path fill="#BD4B17" d="M20.752,43.516c-4.055,0.573-7.82-2.258-8.394-6.313l-1.285-9.071l-6.521,0.924
				c-2.25,0.319-3.829,2.42-3.51,4.669l3.132,22.114c0.318,2.249,2.419,3.829,4.668,3.51l52.47-7.433
				c2.249-0.32,3.829-2.42,3.51-4.669l-1.385-9.779L20.752,43.516z"/>
		</g>
	</g>
	<linearGradient id="SVGID_1_" gradientUnits="userSpaceOnUse" x1="31.9199" y1="14.6055" x2="73.6611" y2="14.6055">
		<stop  offset="0" style="stop-color:#EA581D"/>
		<stop  offset="0.0379" style="stop-color:#EA5A1D"/>
		<stop  offset="0.6334" style="stop-color:#EE701C"/>
		<stop  offset="1" style="stop-color:#EF781C"/>
	</linearGradient>
	<path display="inline" fill="url(#SVGID_1_)" d="M68.831,8.55c-0.062-0.414-0.408-0.716-0.781-0.716
		c-0.033,0-34.495,2.965-35.461,2.996s-0.787-0.595-0.079-0.695s35.052-4.966,35.052-4.966c0.163-0.023,0.327-0.034,0.488-0.034
		c1.723,0,3.204,1.286,3.446,2.992c0,0,2.031,14.361,2.149,15.173s-0.397,1.177-0.684,0.143S68.831,8.55,68.831,8.55z"/>
</g>
<g display="none">
	<g display="inline" opacity="0.3">
		<path fill="#FFFFFF" d="M226.701,2c-13.178,0-23.859,10.683-23.859,23.859c0,10.164,6.357,18.839,15.312,22.275l8.548,14.588
			l8.548-14.588c8.954-3.437,15.312-12.111,15.312-22.275C250.561,12.683,239.879,2,226.701,2z M226.701,41.312
			c-8.711,0-15.774-7.063-15.774-15.774c0-8.711,7.063-15.775,15.774-15.775s15.774,7.064,15.774,15.775
			C242.476,34.249,235.412,41.312,226.701,41.312z"/>
	</g>
	<g display="inline">
		<path fill="#BD4B17" d="M226.701,0c-13.178,0-23.859,10.683-23.859,23.859c0,10.164,6.357,18.839,15.312,22.275l8.548,14.588
			l8.548-14.588c8.954-3.437,15.312-12.111,15.312-22.275C250.561,10.683,239.879,0,226.701,0z M226.701,39.312
			c-8.711,0-15.774-7.063-15.774-15.774c0-8.711,7.063-15.775,15.774-15.775s15.774,7.064,15.774,15.775
			C242.476,32.249,235.412,39.312,226.701,39.312z"/>
	</g>
</g>
<g>
	<g opacity="0.3">
		<path fill="#010202" d="M226.701,2c-13.178,0-23.859,10.683-23.859,23.859c0,10.164,6.357,18.839,15.312,22.275l8.548,14.588
			l8.548-14.588c8.954-3.437,15.312-12.111,15.312-22.275C250.561,12.683,239.879,2,226.701,2z M226.701,41.312
			c-8.711,0-15.774-7.063-15.774-15.774c0-8.711,7.063-15.775,15.774-15.775s15.774,7.064,15.774,15.775
			C242.476,34.249,235.412,41.312,226.701,41.312z"/>
	</g>
	<g>
		<path fill="#FFFFFF" d="M226.701,0c-13.178,0-23.859,10.683-23.859,23.859c0,10.164,6.357,18.839,15.312,22.275l8.548,14.588
			l8.548-14.588c8.954-3.437,15.312-12.111,15.312-22.275C250.561,10.683,239.879,0,226.701,0z M226.701,39.312
			c-8.711,0-15.774-7.063-15.774-15.774c0-8.711,7.063-15.775,15.774-15.775s15.774,7.064,15.774,15.775
			C242.476,32.249,235.412,39.312,226.701,39.312z"/>
	</g>
</g>
<g>
	<g>
		<g opacity="0.3">
			<path fill="#020304" d="M11.489,15.628c-0.318-2.249,1.261-4.351,3.51-4.67l52.47-7.433c2.249-0.319,4.35,1.262,4.668,3.51
				L75.27,29.15c0.319,2.248-1.261,4.35-3.51,4.667l-52.47,7.435c-2.25,0.318-4.35-1.262-4.668-3.512L11.489,15.628z"/>
		</g>
		<g>
			<path fill="#FFFFFF" d="M11.489,13.628c-0.318-2.249,1.261-4.351,3.51-4.67l52.47-7.433c2.249-0.319,4.35,1.262,4.668,3.51
				L75.27,27.15c0.319,2.248-1.261,4.35-3.51,4.667l-52.47,7.435c-2.25,0.318-4.35-1.262-4.668-3.512L11.489,13.628z"/>
		</g>
	</g>
	<g>
		<g opacity="0.3">
			<path fill="#020304" d="M19.751,44.516c-4.055,0.573-7.82-2.258-8.394-6.313l-1.285-9.071l-6.521,0.924
				c-2.25,0.319-3.829,2.42-3.51,4.669l3.132,22.114c0.318,2.249,2.419,3.829,4.668,3.51l52.47-7.433
				c2.249-0.32,3.829-2.42,3.51-4.669l-1.385-9.779L19.751,44.516z"/>
		</g>
		<g>
			<path fill="#FFFFFF" d="M19.751,42.516c-4.055,0.573-7.82-2.258-8.394-6.313l-1.285-9.071l-6.521,0.924
				c-2.25,0.319-3.829,2.42-3.51,4.669l3.132,22.114c0.318,2.249,2.419,3.829,4.668,3.51l52.47-7.433
				c2.249-0.32,3.829-2.42,3.51-4.669l-1.385-9.779L19.751,42.516z"/>
		</g>
	</g>
	<linearGradient id="SVGID_2_" gradientUnits="userSpaceOnUse" x1="30.9185" y1="13.6055" x2="72.6597" y2="13.6055">
		<stop  offset="0" style="stop-color:#EA581D"/>
		<stop  offset="0.0379" style="stop-color:#EA5A1D"/>
		<stop  offset="0.6334" style="stop-color:#EE701C"/>
		<stop  offset="1" style="stop-color:#EF781C"/>
	</linearGradient>
	<path fill="url(#SVGID_2_)" d="M67.829,7.55c-0.062-0.414-0.408-0.716-0.781-0.716c-0.033,0-34.495,2.965-35.461,2.996
		S30.8,9.235,31.508,9.135S66.56,4.169,66.56,4.169c0.163-0.023,0.327-0.034,0.488-0.034c1.723,0,3.204,1.286,3.446,2.992
		c0,0,2.031,14.361,2.149,15.173s-0.397,1.177-0.684,0.143S67.829,7.55,67.829,7.55z"/>
</g>
</svg>
