<?xml version="1.0" encoding="utf-8"?>
<!-- Generator: Adobe Illustrator 16.0.0, SVG Export Plug-In . SVG Version: 6.00 Build 0)  -->
<!DOCTYPE svg PUBLIC "-//W3C//DTD SVG 1.1//EN" "http://www.w3.org/Graphics/SVG/1.1/DTD/svg11.dtd">
<svg version="1.1" id="Слой_1" xmlns="http://www.w3.org/2000/svg" xmlns:xlink="http://www.w3.org/1999/xlink" x="0px" y="0px"
	 width="77.877px" height="81.22px" viewBox="0 0 77.877 81.22" enable-background="new 0 0 77.877 81.22" xml:space="preserve">
<g>
	<g opacity="0.3">
		<path fill="#0D0F0F" d="M44.046,60.059c0-6.278,4.758-9.749,12.52-14.893c9.495-6.29,21.311-14.118,21.311-32.7
			c0-1.673-1.37-3.028-3.062-3.028H59.975c-2.099-3.875-8.346-8.021-21.036-8.021c-12.687,0-18.936,4.146-21.034,8.021H3.063
			C1.372,9.438,0,10.793,0,12.466c0,18.582,11.819,26.41,21.312,32.7c7.765,5.144,12.521,8.614,12.521,14.893v5.67
			c-8.152,0.905-14.144,3.924-14.144,7.51c0,4.301,8.618,7.788,19.249,7.788c10.633,0,19.252-3.487,19.252-7.788
			c0-3.586-5.992-6.604-14.145-7.51V60.059z M56.059,38.194c2.456-5.195,4.396-12.234,4.71-22.698h10.855
			C70.591,27.176,63.572,33.074,56.059,38.194z M38.938,6.72c11.821-0.007,16.439,4.827,16.433,6.62
			c0,1.804-4.608,6.631-16.433,6.641c-11.821-0.01-16.433-4.837-16.433-6.641C22.501,11.547,27.119,6.713,38.938,6.72z
			 M6.255,15.496h10.854c0.313,10.464,2.256,17.503,4.712,22.698C14.309,33.074,7.288,27.176,6.255,15.496z"/>
	</g>
	<g>
		<g>
			<path fill="#FFFFFF" d="M44.046,58.642c0-6.278,4.758-9.749,12.52-14.893c9.495-6.29,21.311-14.118,21.311-32.7
				c0-1.673-1.37-3.028-3.062-3.028H59.975C57.875,4.146,51.629,0,38.938,0C26.251,0,20.003,4.146,17.904,8.021H3.063
				C1.372,8.021,0,9.376,0,11.049c0,18.582,11.819,26.41,21.312,32.7c7.765,5.144,12.521,8.614,12.521,14.893v5.67
				c-8.152,0.905-14.144,3.924-14.144,7.51c0,4.301,8.618,7.788,19.249,7.788c10.633,0,19.252-3.487,19.252-7.788
				c0-3.586-5.992-6.604-14.145-7.51V58.642z M56.059,36.777c2.456-5.195,4.396-12.234,4.71-22.698h10.855
				C70.591,25.759,63.572,31.657,56.059,36.777z M38.938,5.303c11.821-0.007,16.439,4.827,16.433,6.62
				c0,1.804-4.608,6.631-16.433,6.641c-11.821-0.01-16.433-4.837-16.433-6.641C22.501,10.13,27.119,5.296,38.938,5.303z
				 M6.255,14.079h10.854c0.313,10.464,2.256,17.503,4.712,22.698C14.309,31.657,7.288,25.759,6.255,14.079z"/>
		</g>
	</g>
</g>
</svg>
