<svg xmlns="http://www.w3.org/2000/svg" width="31.454" height="47.009"><g opacity=".3" fill="#0D0F0F"><rect x="18.088" y="14.506" transform="matrix(.854 .521 -.521 .854 16.46 -6.854)" width="4.679" height="22.712"/><polygon points="16.763,10.323 16.763,10.323 16.147,9.95 15.793,9.732 15.793,9.732 12.768,7.888 0.938,27.275 3.965,29.121 3.965,29.121 10.721,33.245 22.55,13.857"/><path d="M.465 29.013l-.465 17.311 15.18-8.332-14.715-8.979zm1.914 8.689l.117-4.841 4.131 2.522 4.134 2.521-4.25 2.318-4.132-2.52zM29.946 6.32l-8.074-4.927c-1.754-1.072-4.492.207-5.631 1.895l-.007-.004-.085.14-.008.012-.037.06-.01.018-1.929 3.161 14.612 8.916 2.068-3.389-.006-.004c.98-1.786.864-4.806-.893-5.878zM30.549 44.979h-20.035c-.785.578-1.444 1.327-2.105 2.028h22.141v-2.028z"/></g><rect x="18.088" y="13.506" transform="matrix(.854 .521 -.521 .854 15.939 -7.001)" fill="#fff" width="4.679" height="22.712"/><polygon fill="#fff" points="16.763,9.323 16.763,9.323 16.147,8.95 15.793,8.732 15.793,8.732 12.768,6.888 0.938,26.275 3.965,28.121 3.965,28.121 10.721,32.245 22.55,12.857"/><path fill="#fff" d="M.465 28.013l-.465 17.311 15.18-8.332-14.715-8.979zm1.914 8.689l.117-4.841 4.131 2.522 4.134 2.521-4.25 2.318-4.132-2.52z"/><path fill="#fff" d="M29.946 5.32l-8.074-4.927c-1.754-1.072-4.492.207-5.631 1.895l-.007-.004-.085.14-.008.012-.037.06-.01.018-1.929 3.161 14.612 8.916 2.068-3.389-.006-.004c.98-1.786.864-4.806-.893-5.878z"/><path fill="#fff" d="M30.549 43.979h-20.035c-.785.578-1.444 1.327-2.105 2.028h22.141v-2.028z"/></svg>