<svg xmlns="http://www.w3.org/2000/svg" width="46.216" height="34.675"><path fill="#0D0F0F" d="M0 1v33.218h46.216v-33.218h-46.216zm39.847 3.502l-16.914 17.01-16.913-17.01h33.827zm-36.532 2.812l10.65 10.592-10.65 10.59v-21.182zm23.162 23.402h-20.177l10.088-10.146 6.595 6.633 6.594-6.633 10.088 10.146h-13.188zm16.425-2.615l-10.651-10.591 10.65-10.591v21.182z" opacity=".3"/><path fill="#fff" d="M0 0v33.218h46.216v-33.218h-46.216zm39.847 3.502l-16.914 17.01-16.913-17.01h33.827zm-36.532 2.812l10.65 10.592-10.65 10.59v-21.182zm23.162 23.402h-20.177l10.088-10.146 6.595 6.633 6.594-6.633 10.088 10.146h-13.188zm16.425-2.615l-10.651-10.591 10.65-10.591v21.182z"/></svg>