<svg xmlns="http://www.w3.org/2000/svg" width="45.777" height="47.009"><path fill="#0D0F0F" d="M22.58 1.002c-12.638.168-22.748 10.554-22.58 23.195.169 12.635 10.554 22.747 23.193 22.578 12.639-.169 22.749-10.554 22.582-23.195-.17-12.636-10.554-22.747-23.195-22.578zm2.539 7.627c2.326 0 3.014 1.35 3.014 2.894 0 1.93-1.545 3.712-4.178 3.712-2.205 0-3.253-1.109-3.191-2.941 0-1.544 1.293-3.665 4.355-3.665zm-5.965 29.565c-1.591 0-2.755-.965-1.642-5.208l1.823-7.526c.317-1.206.371-1.688 0-1.688-.478 0-2.542.833-3.759 1.653l-.795-1.302c3.867-3.229 8.314-5.125 10.222-5.125 1.589 0 1.854 1.881 1.06 4.773l-2.089 7.912c-.37 1.398-.212 1.881.158 1.881.478 0 2.041-.581 3.576-1.786l.9 1.206c-3.76 3.761-7.865 5.21-9.454 5.21z" opacity=".3"/><path fill="#fff" d="M22.58.002c-12.638.168-22.748 10.554-22.58 23.195.169 12.635 10.554 22.747 23.193 22.578 12.639-.169 22.749-10.554 22.582-23.195-.17-12.636-10.554-22.747-23.195-22.578zm2.539 7.627c2.326 0 3.014 1.35 3.014 2.894 0 1.93-1.545 3.712-4.178 3.712-2.205 0-3.253-1.109-3.191-2.941 0-1.544 1.293-3.665 4.355-3.665zm-5.965 29.565c-1.591 0-2.755-.965-1.642-5.208l1.823-7.526c.317-1.206.371-1.688 0-1.688-.478 0-2.542.833-3.759 1.653l-.795-1.302c3.867-3.229 8.314-5.125 10.222-5.125 1.589 0 1.854 1.881 1.06 4.773l-2.089 7.912c-.37 1.398-.212 1.881.158 1.881.478 0 2.041-.581 3.576-1.786l.9 1.206c-3.76 3.761-7.865 5.21-9.454 5.21z"/></svg>