<?xml version="1.0" encoding="utf-8"?>
<!-- Generator: Adobe Illustrator 16.0.0, SVG Export Plug-In . SVG Version: 6.00 Build 0)  -->
<!DOCTYPE svg PUBLIC "-//W3C//DTD SVG 1.1//EN" "http://www.w3.org/Graphics/SVG/1.1/DTD/svg11.dtd">
<svg version="1.1" id="Слой_1" xmlns="http://www.w3.org/2000/svg" xmlns:xlink="http://www.w3.org/1999/xlink" x="0px" y="0px"
	 width="170px" height="170.222px" viewBox="0 0 170 170.222" enable-background="new 0 0 170 170.222" xml:space="preserve">
<g display="none">
	<g display="inline">
		<g opacity="0.3">
			<path fill="#FFFFFF" d="M51.195,126.127c-0.318-2.249,1.261-4.351,3.51-4.67l52.47-7.433c2.249-0.319,4.35,1.262,4.668,3.51
				l3.132,22.115c0.319,2.248-1.261,4.35-3.51,4.667l-52.47,7.435c-2.25,0.318-4.35-1.262-4.668-3.512L51.195,126.127z"/>
		</g>
		<g>
			<path fill="#BD4B17" d="M51.195,124.127c-0.318-2.249,1.261-4.351,3.51-4.67l52.47-7.433c2.249-0.319,4.35,1.262,4.668,3.51
				l3.132,22.115c0.319,2.248-1.261,4.35-3.51,4.667l-52.47,7.435c-2.25,0.318-4.35-1.262-4.668-3.512L51.195,124.127z"/>
		</g>
	</g>
	<g display="inline">
		<g opacity="0.3">
			<path fill="#FFFFFF" d="M59.457,155.015c-4.055,0.573-7.82-2.258-8.394-6.313l-1.285-9.071l-6.521,0.924
				c-2.25,0.319-3.829,2.42-3.51,4.669l3.132,22.114c0.318,2.249,2.419,3.829,4.668,3.51l52.47-7.433
				c2.249-0.32,3.829-2.42,3.51-4.669l-1.385-9.779L59.457,155.015z"/>
		</g>
		<g>
			<path fill="#BD4B17" d="M59.457,153.015c-4.055,0.573-7.82-2.258-8.394-6.313l-1.285-9.071l-6.521,0.924
				c-2.25,0.319-3.829,2.42-3.51,4.669l3.132,22.114c0.318,2.249,2.419,3.829,4.668,3.51l52.47-7.433
				c2.249-0.32,3.829-2.42,3.51-4.669l-1.385-9.779L59.457,153.015z"/>
		</g>
	</g>
	<linearGradient id="SVGID_1_" gradientUnits="userSpaceOnUse" x1="70.624" y1="124.1045" x2="112.3652" y2="124.1045">
		<stop  offset="0" style="stop-color:#EA581D"/>
		<stop  offset="0.0379" style="stop-color:#EA5A1D"/>
		<stop  offset="0.6334" style="stop-color:#EE701C"/>
		<stop  offset="1" style="stop-color:#EF781C"/>
	</linearGradient>
	<path display="inline" fill="url(#SVGID_1_)" d="M107.535,118.049c-0.062-0.414-0.408-0.716-0.781-0.716
		c-0.033,0-34.495,2.965-35.461,2.996s-0.787-0.595-0.079-0.695s35.052-4.966,35.052-4.966c0.163-0.023,0.327-0.034,0.488-0.034
		c1.723,0,3.204,1.286,3.446,2.992c0,0,2.031,14.361,2.149,15.173s-0.397,1.177-0.684,0.143S107.535,118.049,107.535,118.049z"/>
</g>
<g display="none">
	<g display="inline" opacity="0.3">
		<path fill="#FFFFFF" d="M265.405,111.499c-13.178,0-23.859,10.683-23.859,23.859c0,10.164,6.357,18.839,15.312,22.275
			l8.548,14.588l8.548-14.588c8.954-3.437,15.312-12.111,15.312-22.275C289.265,122.182,278.583,111.499,265.405,111.499z
			 M265.405,150.811c-8.711,0-15.774-7.063-15.774-15.774c0-8.711,7.063-15.775,15.774-15.775s15.774,7.064,15.774,15.775
			C281.18,143.748,274.116,150.811,265.405,150.811z"/>
	</g>
	<g display="inline">
		<path fill="#BD4B17" d="M265.405,109.499c-13.178,0-23.859,10.683-23.859,23.859c0,10.164,6.357,18.839,15.312,22.275
			l8.548,14.588l8.548-14.588c8.954-3.437,15.312-12.111,15.312-22.275C289.265,120.182,278.583,109.499,265.405,109.499z
			 M265.405,148.811c-8.711,0-15.774-7.063-15.774-15.774c0-8.711,7.063-15.775,15.774-15.775s15.774,7.064,15.774,15.775
			C281.18,141.748,274.116,148.811,265.405,148.811z"/>
	</g>
</g>
<g display="none">
	<g display="inline" opacity="0.3">
		<path fill="#010202" d="M265.405,111.499c-13.178,0-23.859,10.683-23.859,23.859c0,10.164,6.357,18.839,15.312,22.275
			l8.548,14.588l8.548-14.588c8.954-3.437,15.312-12.111,15.312-22.275C289.265,122.182,278.583,111.499,265.405,111.499z
			 M265.405,150.811c-8.711,0-15.774-7.063-15.774-15.774c0-8.711,7.063-15.775,15.774-15.775s15.774,7.064,15.774,15.775
			C281.18,143.748,274.116,150.811,265.405,150.811z"/>
	</g>
	<g display="inline">
		<path fill="#FFFFFF" d="M265.405,109.499c-13.178,0-23.859,10.683-23.859,23.859c0,10.164,6.357,18.839,15.312,22.275
			l8.548,14.588l8.548-14.588c8.954-3.437,15.312-12.111,15.312-22.275C289.265,120.182,278.583,109.499,265.405,109.499z
			 M265.405,148.811c-8.711,0-15.774-7.063-15.774-15.774c0-8.711,7.063-15.775,15.774-15.775s15.774,7.064,15.774,15.775
			C281.18,141.748,274.116,148.811,265.405,148.811z"/>
	</g>
</g>
<g display="none">
	<g display="inline">
		<g opacity="0.3">
			<path fill="#020304" d="M50.193,125.127c-0.318-2.249,1.261-4.351,3.51-4.67l52.47-7.433c2.249-0.319,4.35,1.262,4.668,3.51
				l3.132,22.115c0.319,2.248-1.261,4.35-3.51,4.667l-52.47,7.435c-2.25,0.318-4.35-1.262-4.668-3.512L50.193,125.127z"/>
		</g>
		<g>
			<path fill="#FFFFFF" d="M50.193,123.127c-0.318-2.249,1.261-4.351,3.51-4.67l52.47-7.433c2.249-0.319,4.35,1.262,4.668,3.51
				l3.132,22.115c0.319,2.248-1.261,4.35-3.51,4.667l-52.47,7.435c-2.25,0.318-4.35-1.262-4.668-3.512L50.193,123.127z"/>
		</g>
	</g>
	<g display="inline">
		<g opacity="0.3">
			<path fill="#020304" d="M58.455,154.015c-4.055,0.573-7.82-2.258-8.394-6.313l-1.285-9.071l-6.521,0.924
				c-2.25,0.319-3.829,2.42-3.51,4.669l3.132,22.114c0.318,2.249,2.419,3.829,4.668,3.51l52.47-7.433
				c2.249-0.32,3.829-2.42,3.51-4.669l-1.385-9.779L58.455,154.015z"/>
		</g>
		<g>
			<path fill="#FFFFFF" d="M58.455,152.015c-4.055,0.573-7.82-2.258-8.394-6.313l-1.285-9.071l-6.521,0.924
				c-2.25,0.319-3.829,2.42-3.51,4.669l3.132,22.114c0.318,2.249,2.419,3.829,4.668,3.51l52.47-7.433
				c2.249-0.32,3.829-2.42,3.51-4.669l-1.385-9.779L58.455,152.015z"/>
		</g>
	</g>
	<linearGradient id="SVGID_2_" gradientUnits="userSpaceOnUse" x1="69.6226" y1="123.1045" x2="111.3638" y2="123.1045">
		<stop  offset="0" style="stop-color:#EA581D"/>
		<stop  offset="0.0379" style="stop-color:#EA5A1D"/>
		<stop  offset="0.6334" style="stop-color:#EE701C"/>
		<stop  offset="1" style="stop-color:#EF781C"/>
	</linearGradient>
	<path display="inline" fill="url(#SVGID_2_)" d="M106.533,117.049c-0.062-0.414-0.408-0.716-0.781-0.716
		c-0.033,0-34.495,2.965-35.461,2.996s-0.787-0.595-0.079-0.695s35.052-4.966,35.052-4.966c0.163-0.023,0.327-0.034,0.488-0.034
		c1.723,0,3.204,1.286,3.446,2.992c0,0,2.031,14.361,2.149,15.173s-0.397,1.177-0.684,0.143S106.533,117.049,106.533,117.049z"/>
</g>
<g display="none">
	<g display="inline">
		<linearGradient id="SVGID_3_" gradientUnits="userSpaceOnUse" x1="91.5449" y1="170.8252" x2="91.5449" y2="156.6689">
			<stop  offset="0" style="stop-color:#A03716"/>
			<stop  offset="0.3708" style="stop-color:#A33916"/>
			<stop  offset="0.6853" style="stop-color:#AC3F17"/>
			<stop  offset="0.9785" style="stop-color:#BC4A17"/>
			<stop  offset="1" style="stop-color:#BD4B17"/>
		</linearGradient>
		<path fill="url(#SVGID_3_)" d="M52.423,157.901c-1.771,0-3.438-0.449-4.896-1.232l0.823,7.523
			c0.404,3.691,3.826,6.633,7.651,6.633h71.09c3.824,0,7.246-2.939,7.649-6.633l0.822-7.523c-1.459,0.783-3.125,1.232-4.895,1.232
			H52.423z"/>
		<linearGradient id="SVGID_4_" gradientUnits="userSpaceOnUse" x1="91.5454" y1="154.4385" x2="91.5454" y2="119.124">
			<stop  offset="0" style="stop-color:#A03716"/>
			<stop  offset="1" style="stop-color:#BD4B17"/>
		</linearGradient>
		<path fill="url(#SVGID_4_)" d="M130.669,119.124H104.34v9.709c0,7.057-5.74,12.795-12.795,12.795
			c-7.054,0-12.793-5.738-12.793-12.795v-9.709H52.423c-3.825,0-6.925,3.1-6.925,6.924v21.465c0,2.438,1.263,4.578,3.166,5.811
			c0.032,0.021,0.065,0.041,0.096,0.061c0.171,0.105,0.348,0.207,0.53,0.301c0.059,0.029,0.119,0.057,0.179,0.086
			c0.159,0.074,0.321,0.143,0.486,0.207c0.075,0.029,0.149,0.057,0.225,0.084c0.158,0.055,0.319,0.1,0.481,0.143
			c0.083,0.021,0.164,0.045,0.247,0.063c0.17,0.041,0.344,0.066,0.519,0.094c0.076,0.01,0.152,0.023,0.23,0.033
			c0.252,0.029,0.507,0.045,0.767,0.045h78.246c0.258,0,0.516-0.016,0.766-0.045c0.08-0.01,0.155-0.023,0.232-0.033
			c0.173-0.027,0.346-0.053,0.516-0.094c0.084-0.02,0.166-0.041,0.248-0.063c0.162-0.043,0.321-0.088,0.479-0.143
			c0.077-0.027,0.153-0.055,0.228-0.084c0.165-0.064,0.325-0.133,0.482-0.207c0.063-0.029,0.122-0.057,0.182-0.088
			c0.182-0.092,0.355-0.191,0.527-0.299c0.031-0.02,0.066-0.037,0.098-0.061c1.904-1.232,3.165-3.373,3.165-5.809v-21.467
			C137.592,122.224,134.49,119.124,130.669,119.124z"/>
		<linearGradient id="SVGID_5_" gradientUnits="userSpaceOnUse" x1="91.5454" y1="138.165" x2="91.5454" y2="114.8389">
			<stop  offset="0" style="stop-color:#983334"/>
			<stop  offset="1" style="stop-color:#BD4B17"/>
		</linearGradient>
		<path fill="url(#SVGID_5_)" d="M82.213,114.839v13.994c0,5.152,4.179,9.332,9.332,9.332c5.154,0,9.333-4.18,9.333-9.332v-13.994
			c-2.827,1.614-5.978,2.572-9.333,2.572C88.191,117.411,85.04,116.454,82.213,114.839z"/>
		<linearGradient id="SVGID_6_" gradientUnits="userSpaceOnUse" x1="91.5449" y1="113.583" x2="91.5449" y2="92.0986">
			<stop  offset="0" style="stop-color:#A03716"/>
			<stop  offset="1" style="stop-color:#BD4B17"/>
		</linearGradient>
		<path fill="url(#SVGID_6_)" d="M85.423,112.203c0.042,0.021,0.084,0.037,0.126,0.058c0.327,0.146,0.657,0.28,0.991,0.403
			c0.046,0.019,0.094,0.036,0.141,0.054c0.73,0.262,1.476,0.467,2.239,0.61c0.1,0.021,0.201,0.036,0.303,0.054
			c0.281,0.047,0.565,0.086,0.85,0.115c0.109,0.012,0.217,0.025,0.324,0.034c0.379,0.03,0.762,0.052,1.146,0.052
			c0.386,0,0.769-0.021,1.147-0.052c0.108-0.009,0.215-0.022,0.324-0.034c0.285-0.029,0.569-0.068,0.852-0.115
			c0.102-0.018,0.203-0.033,0.303-0.053c0.764-0.146,1.51-0.352,2.24-0.613c0.046-0.016,0.092-0.033,0.139-0.052
			c0.336-0.123,0.666-0.258,0.992-0.403c0.042-0.021,0.084-0.037,0.127-0.058c1.121-0.512,2.191-1.153,3.205-1.901
			c0.002-0.002,0.004-0.002,0.005-0.004l0,0c5.595-4.138,9.362-11.511,9.362-18.18c0-0.006-0.002-0.014-0.002-0.02
			c-1.043,1.019-2.312,1.951-3.793,2.772c-4.035,2.244-9.328,3.479-14.9,3.479c-5.572,0-10.864-1.235-14.9-3.479
			c-1.481-0.822-2.75-1.755-3.795-2.771c0,0.006,0,0.013,0,0.019C72.849,99.995,78.105,108.86,85.423,112.203z"/>
		<linearGradient id="SVGID_7_" gradientUnits="userSpaceOnUse" x1="91.5449" y1="94.8877" x2="91.5449" y2="74.1143">
			<stop  offset="0" style="stop-color:#A03716"/>
			<stop  offset="1" style="stop-color:#BD4B17"/>
		</linearGradient>
		<ellipse fill="url(#SVGID_7_)" cx="91.545" cy="84.501" rx="18.695" ry="10.387"/>
	</g>
</g>
<g>
	<circle fill="#BD4B17" cx="85" cy="84.614" r="85"/>
	<radialGradient id="SVGID_8_" cx="85" cy="84.6143" r="80.5" gradientUnits="userSpaceOnUse">
		<stop  offset="0" style="stop-color:#F38F1C"/>
		<stop  offset="0.3206" style="stop-color:#F28D1C"/>
		<stop  offset="0.5844" style="stop-color:#F1841C"/>
		<stop  offset="0.8272" style="stop-color:#EE761D"/>
		<stop  offset="1" style="stop-color:#EC661D"/>
	</radialGradient>
	<circle fill="url(#SVGID_8_)" cx="85" cy="84.614" r="80.5"/>
	
		<radialGradient id="SVGID_9_" cx="128.2505" cy="106.374" r="58.8988" gradientTransform="matrix(1 0 0 1.0483 0 -26.8968)" gradientUnits="userSpaceOnUse">
		<stop  offset="0" style="stop-color:#F38F1C"/>
		<stop  offset="0.3206" style="stop-color:#F28D1C"/>
		<stop  offset="0.5844" style="stop-color:#F1841C"/>
		<stop  offset="0.8272" style="stop-color:#EE761D"/>
		<stop  offset="1" style="stop-color:#EC661D"/>
	</radialGradient>
	<path fill="url(#SVGID_9_)" d="M91,6.514c35.531,0,66.336,34.967,66.336,78.101S126.531,162.715,91,162.715
		c41.146,0,74.501-34.967,74.501-78.101S132.146,6.514,91,6.514z"/>
	
		<radialGradient id="SVGID_10_" cx="841.5542" cy="106.374" r="58.8987" gradientTransform="matrix(-1 0 0 1.0483 882.8037 -26.8968)" gradientUnits="userSpaceOnUse">
		<stop  offset="0" style="stop-color:#F38F1C"/>
		<stop  offset="0.3206" style="stop-color:#F28D1C"/>
		<stop  offset="0.5844" style="stop-color:#F1841C"/>
		<stop  offset="0.8272" style="stop-color:#EE761D"/>
		<stop  offset="1" style="stop-color:#EC661D"/>
	</radialGradient>
	<path fill="url(#SVGID_10_)" d="M78.5,6.514c-35.531,0-67.336,34.967-67.336,78.101s31.805,78.101,67.336,78.101
		c-41.146,0-74.501-34.967-74.501-78.101S37.354,6.514,78.5,6.514z"/>
	<linearGradient id="SVGID_11_" gradientUnits="userSpaceOnUse" x1="83.6519" y1="134.3604" x2="83.6518" y2="27.4951">
		<stop  offset="0" style="stop-color:#EC661D"/>
		<stop  offset="0.796" style="stop-color:#F1871C"/>
		<stop  offset="1" style="stop-color:#F38F1C"/>
	</linearGradient>
	<path fill="url(#SVGID_11_)" d="M134.652,84.428c0-6.574-5.179-12.067-11.752-12.067H98.652v-1.335
		c5-5.224,9.091-13.087,9.091-20.527l-0.138-7.566c0-0.017,0.025-0.033,0.025-0.05s0.021-0.033,0.021-0.05v-4.223l-0.737,0.63
		c-2.459-6.813-11.745-11.744-23.093-11.744c-11.372,0-20.367,4.953-22.801,11.789l-0.369-0.611v4.184c0,0.009,0,0.017,0,0.025
		s0,0.017,0,0.025V50.5c0,7.532,3,15.385,9,20.52v1.341H44.653c-6.575,0-12.001,5.493-12.001,12.068v21.465
		c0,2.178,0.636,4.251,1.698,6.053l1.241,11.248c0.681,6.218,6.244,11.166,12.641,11.166h71.09c6.397,0,11.94-4.948,12.62-11.166
		l1.137-11.229c1.061-1.803,1.573-3.908,1.573-6.069V84.428z"/>
	<g>
		<g>
			<linearGradient id="SVGID_12_" gradientUnits="userSpaceOnUse" x1="83.7754" y1="129.2061" x2="83.7754" y2="115.0498">
				<stop  offset="0" style="stop-color:#A03716"/>
				<stop  offset="0.3708" style="stop-color:#A33916"/>
				<stop  offset="0.6853" style="stop-color:#AC3F17"/>
				<stop  offset="0.9785" style="stop-color:#BC4A17"/>
				<stop  offset="1" style="stop-color:#BD4B17"/>
			</linearGradient>
			<path fill="url(#SVGID_12_)" d="M44.653,116.282c-1.771,0-3.438-0.449-4.896-1.232l0.823,7.523
				c0.404,3.691,3.826,6.633,7.651,6.633h71.09c3.824,0,7.246-2.939,7.649-6.633l0.822-7.523c-1.459,0.783-3.125,1.232-4.895,1.232
				H44.653z"/>
			<linearGradient id="SVGID_13_" gradientUnits="userSpaceOnUse" x1="83.7759" y1="112.8193" x2="83.7759" y2="77.5049">
				<stop  offset="0" style="stop-color:#A03716"/>
				<stop  offset="1" style="stop-color:#BD4B17"/>
			</linearGradient>
			<path fill="url(#SVGID_13_)" d="M122.899,77.505H96.57v9.709c0,7.057-5.74,12.795-12.795,12.795
				c-7.054,0-12.793-5.738-12.793-12.795v-9.709H44.653c-3.825,0-6.925,3.1-6.925,6.924v21.465c0,2.438,1.263,4.578,3.166,5.811
				c0.032,0.021,0.065,0.041,0.096,0.061c0.171,0.105,0.348,0.207,0.53,0.301c0.059,0.029,0.119,0.057,0.179,0.086
				c0.159,0.074,0.321,0.143,0.486,0.207c0.075,0.029,0.149,0.057,0.225,0.084c0.158,0.055,0.319,0.1,0.481,0.143
				c0.083,0.021,0.164,0.045,0.247,0.063c0.17,0.041,0.344,0.066,0.519,0.094c0.076,0.01,0.152,0.023,0.23,0.033
				c0.252,0.029,0.507,0.045,0.767,0.045H122.9c0.258,0,0.516-0.016,0.766-0.045c0.08-0.01,0.155-0.023,0.232-0.033
				c0.173-0.027,0.346-0.053,0.516-0.094c0.084-0.02,0.166-0.041,0.248-0.063c0.162-0.043,0.321-0.088,0.479-0.143
				c0.077-0.027,0.153-0.055,0.228-0.084c0.165-0.064,0.325-0.133,0.482-0.207c0.063-0.029,0.122-0.057,0.182-0.088
				c0.182-0.092,0.355-0.191,0.527-0.299c0.031-0.02,0.066-0.037,0.098-0.061c1.904-1.232,3.165-3.373,3.165-5.809V84.429
				C129.822,80.604,126.721,77.505,122.899,77.505z"/>
			<linearGradient id="SVGID_14_" gradientUnits="userSpaceOnUse" x1="83.7759" y1="96.5459" x2="83.7759" y2="73.2197">
				<stop  offset="0" style="stop-color:#983334"/>
				<stop  offset="1" style="stop-color:#BD4B17"/>
			</linearGradient>
			<path fill="url(#SVGID_14_)" d="M74.443,73.22v13.994c0,5.152,4.179,9.332,9.332,9.332c5.154,0,9.333-4.18,9.333-9.332V73.22
				c-2.827,1.614-5.978,2.572-9.333,2.572C80.421,75.792,77.271,74.835,74.443,73.22z"/>
			<linearGradient id="SVGID_15_" gradientUnits="userSpaceOnUse" x1="83.7754" y1="71.9639" x2="83.7754" y2="50.4795">
				<stop  offset="0" style="stop-color:#A03716"/>
				<stop  offset="1" style="stop-color:#BD4B17"/>
			</linearGradient>
			<path fill="url(#SVGID_15_)" d="M77.653,70.584c0.042,0.021,0.084,0.037,0.126,0.058c0.327,0.146,0.657,0.28,0.991,0.403
				c0.046,0.019,0.094,0.036,0.141,0.054c0.73,0.262,1.476,0.467,2.239,0.61c0.1,0.021,0.201,0.036,0.303,0.054
				c0.281,0.047,0.565,0.086,0.85,0.115c0.109,0.012,0.217,0.025,0.324,0.034c0.379,0.03,0.762,0.052,1.146,0.052
				c0.386,0,0.769-0.021,1.147-0.052c0.108-0.009,0.215-0.022,0.324-0.034c0.285-0.029,0.569-0.068,0.852-0.115
				c0.102-0.018,0.203-0.033,0.303-0.053c0.764-0.146,1.51-0.352,2.24-0.613c0.046-0.016,0.092-0.033,0.139-0.052
				c0.336-0.123,0.666-0.258,0.992-0.403c0.042-0.021,0.084-0.037,0.127-0.058c1.121-0.512,2.191-1.153,3.205-1.901
				c0.002-0.002,0.004-0.002,0.005-0.004l0,0c5.595-4.138,9.362-11.511,9.362-18.18c0-0.006-0.002-0.014-0.002-0.02
				c-1.043,1.019-2.312,1.951-3.793,2.772c-4.035,2.244-9.328,3.479-14.9,3.479c-5.572,0-10.864-1.235-14.9-3.479
				c-1.481-0.822-2.75-1.755-3.795-2.771c0,0.006,0,0.013,0,0.019C65.08,58.376,70.335,67.241,77.653,70.584z"/>
			<linearGradient id="SVGID_16_" gradientUnits="userSpaceOnUse" x1="83.7754" y1="53.2686" x2="83.7754" y2="32.4951">
				<stop  offset="0" style="stop-color:#A03716"/>
				<stop  offset="1" style="stop-color:#BD4B17"/>
			</linearGradient>
			<ellipse fill="url(#SVGID_16_)" cx="83.775" cy="42.882" rx="18.695" ry="10.387"/>
		</g>
	</g>
</g>
</svg>
