<?xml version="1.0" encoding="utf-8"?>
<!-- Generator: Adobe Illustrator 16.0.0, SVG Export Plug-In . SVG Version: 6.00 Build 0)  -->
<!DOCTYPE svg PUBLIC "-//W3C//DTD SVG 1.1//EN" "http://www.w3.org/Graphics/SVG/1.1/DTD/svg11.dtd">
<svg version="1.1" id="Слой_1" xmlns="http://www.w3.org/2000/svg" xmlns:xlink="http://www.w3.org/1999/xlink" x="0px" y="0px"
	 width="47.729px" height="36.867px" viewBox="0 0 47.729 36.867" enable-background="new 0 0 47.729 36.867" xml:space="preserve">
<g>
	<g opacity="0.3">
		<path fill="#010202" d="M44.32,15.638H3.409C1.526,15.638,0,17.164,0,19.047s1.526,3.409,3.409,3.409H44.32
			c1.883,0,3.409-1.526,3.409-3.409S46.203,15.638,44.32,15.638z M3.409,8.819H44.32c1.883,0,3.409-1.526,3.409-3.409
			S46.203,2,44.32,2H3.409C1.526,2,0,3.527,0,5.41S1.526,8.819,3.409,8.819z M44.32,29.274H3.409C1.526,29.274,0,30.801,0,32.684
			s1.526,3.41,3.409,3.41H44.32c1.883,0,3.409-1.527,3.409-3.41S46.203,29.274,44.32,29.274z"/>
	</g>
	<g>
		<g>
			<path fill="#FFFFFF" d="M44.32,13.638H3.409C1.526,13.638,0,15.164,0,17.047s1.526,3.409,3.409,3.409H44.32
				c1.883,0,3.409-1.526,3.409-3.409S46.203,13.638,44.32,13.638z M3.409,6.819H44.32c1.883,0,3.409-1.526,3.409-3.409
				S46.203,0,44.32,0H3.409C1.526,0,0,1.527,0,3.41S1.526,6.819,3.409,6.819z M44.32,27.274H3.409C1.526,27.274,0,28.801,0,30.684
				s1.526,3.41,3.409,3.41H44.32c1.883,0,3.409-1.527,3.409-3.41S46.203,27.274,44.32,27.274z"/>
		</g>
	</g>
</g>
</svg>
