<?xml version="1.0" encoding="utf-8"?>
<!-- Generator: Adobe Illustrator 16.0.0, SVG Export Plug-In . SVG Version: 6.00 Build 0)  -->
<!DOCTYPE svg PUBLIC "-//W3C//DTD SVG 1.1//EN" "http://www.w3.org/Graphics/SVG/1.1/DTD/svg11.dtd">
<svg version="1.1" id="Слой_1" xmlns="http://www.w3.org/2000/svg" xmlns:xlink="http://www.w3.org/1999/xlink" x="0px" y="0px"
	 width="47.719px" height="62.861px" viewBox="0 0 47.719 62.861" enable-background="new 0 0 47.719 62.861" xml:space="preserve">
<g display="none">
	<g display="inline">
		<g opacity="0.3">
			<path fill="#FFFFFF" d="M-190.351,16.628c-0.318-2.249,1.261-4.351,3.51-4.67l52.47-7.433c2.249-0.319,4.35,1.262,4.668,3.51
				l3.132,22.115c0.319,2.248-1.261,4.35-3.51,4.667l-52.47,7.435c-2.25,0.318-4.35-1.262-4.668-3.512L-190.351,16.628z"/>
		</g>
		<g>
			<path fill="#BD4B17" d="M-190.351,14.628c-0.318-2.249,1.261-4.351,3.51-4.67l52.47-7.433c2.249-0.319,4.35,1.262,4.668,3.51
				l3.132,22.115c0.319,2.248-1.261,4.35-3.51,4.667l-52.47,7.435c-2.25,0.318-4.35-1.262-4.668-3.512L-190.351,14.628z"/>
		</g>
	</g>
	<g display="inline">
		<g opacity="0.3">
			<path fill="#FFFFFF" d="M-182.089,45.516c-4.055,0.573-7.82-2.258-8.394-6.313l-1.285-9.071l-6.521,0.924
				c-2.25,0.319-3.829,2.42-3.51,4.669l3.132,22.114c0.318,2.249,2.419,3.829,4.668,3.51l52.47-7.433
				c2.249-0.32,3.829-2.42,3.51-4.669l-1.385-9.779L-182.089,45.516z"/>
		</g>
		<g>
			<path fill="#BD4B17" d="M-182.089,43.516c-4.055,0.573-7.82-2.258-8.394-6.313l-1.285-9.071l-6.521,0.924
				c-2.25,0.319-3.829,2.42-3.51,4.669l3.132,22.114c0.318,2.249,2.419,3.829,4.668,3.51l52.47-7.433
				c2.249-0.32,3.829-2.42,3.51-4.669l-1.385-9.779L-182.089,43.516z"/>
		</g>
	</g>
	<linearGradient id="SVGID_1_" gradientUnits="userSpaceOnUse" x1="-170.9219" y1="14.6055" x2="-129.1807" y2="14.6055">
		<stop  offset="0" style="stop-color:#EA581D"/>
		<stop  offset="0.0379" style="stop-color:#EA5A1D"/>
		<stop  offset="0.6334" style="stop-color:#EE701C"/>
		<stop  offset="1" style="stop-color:#EF781C"/>
	</linearGradient>
	<path display="inline" fill="url(#SVGID_1_)" d="M-134.011,8.55c-0.062-0.414-0.408-0.716-0.781-0.716
		c-0.033,0-34.495,2.965-35.461,2.996s-0.787-0.595-0.079-0.695s35.052-4.966,35.052-4.966c0.163-0.023,0.327-0.034,0.488-0.034
		c1.723,0,3.204,1.286,3.446,2.992c0,0,2.031,14.361,2.149,15.173s-0.397,1.177-0.684,0.143S-134.011,8.55-134.011,8.55z"/>
</g>
<g>
	<g opacity="0.3">
		<path fill="#FFFFFF" d="M23.859,2C10.682,2,0,12.683,0,25.859c0,10.164,6.357,18.839,15.312,22.275l8.548,14.588l8.548-14.588
			c8.954-3.437,15.312-12.111,15.312-22.275C47.719,12.683,37.037,2,23.859,2z M23.859,41.312c-8.711,0-15.774-7.063-15.774-15.774
			c0-8.711,7.063-15.775,15.774-15.775s15.774,7.064,15.774,15.775C39.634,34.249,32.57,41.312,23.859,41.312z"/>
	</g>
	<g>
		<path fill="#BD4B17" d="M23.859,0C10.682,0,0,10.683,0,23.859c0,10.164,6.357,18.839,15.312,22.275l8.548,14.588l8.548-14.588
			c8.954-3.437,15.312-12.111,15.312-22.275C47.719,10.683,37.037,0,23.859,0z M23.859,39.312c-8.711,0-15.774-7.063-15.774-15.774
			c0-8.711,7.063-15.775,15.774-15.775s15.774,7.064,15.774,15.775C39.634,32.249,32.57,39.312,23.859,39.312z"/>
	</g>
</g>
<g display="none">
	<g display="inline" opacity="0.3">
		<path fill="#010202" d="M23.859,2C10.682,2,0,12.683,0,25.859c0,10.164,6.357,18.839,15.312,22.275l8.548,14.588l8.548-14.588
			c8.954-3.437,15.312-12.111,15.312-22.275C47.719,12.683,37.037,2,23.859,2z M23.859,41.312c-8.711,0-15.774-7.063-15.774-15.774
			c0-8.711,7.063-15.775,15.774-15.775s15.774,7.064,15.774,15.775C39.634,34.249,32.57,41.312,23.859,41.312z"/>
	</g>
	<g display="inline">
		<path fill="#FFFFFF" d="M23.859,0C10.682,0,0,10.683,0,23.859c0,10.164,6.357,18.839,15.312,22.275l8.548,14.588l8.548-14.588
			c8.954-3.437,15.312-12.111,15.312-22.275C47.719,10.683,37.037,0,23.859,0z M23.859,39.312c-8.711,0-15.774-7.063-15.774-15.774
			c0-8.711,7.063-15.775,15.774-15.775s15.774,7.064,15.774,15.775C39.634,32.249,32.57,39.312,23.859,39.312z"/>
	</g>
</g>
<g display="none">
	<g display="inline">
		<g opacity="0.3">
			<path fill="#020304" d="M-191.353,15.628c-0.318-2.249,1.261-4.351,3.51-4.67l52.47-7.433c2.249-0.319,4.35,1.262,4.668,3.51
				l3.132,22.115c0.319,2.248-1.261,4.35-3.51,4.667l-52.47,7.435c-2.25,0.318-4.35-1.262-4.668-3.512L-191.353,15.628z"/>
		</g>
		<g>
			<path fill="#FFFFFF" d="M-191.353,13.628c-0.318-2.249,1.261-4.351,3.51-4.67l52.47-7.433c2.249-0.319,4.35,1.262,4.668,3.51
				l3.132,22.115c0.319,2.248-1.261,4.35-3.51,4.667l-52.47,7.435c-2.25,0.318-4.35-1.262-4.668-3.512L-191.353,13.628z"/>
		</g>
	</g>
	<g display="inline">
		<g opacity="0.3">
			<path fill="#020304" d="M-183.091,44.516c-4.055,0.573-7.82-2.258-8.394-6.313l-1.285-9.071l-6.521,0.924
				c-2.25,0.319-3.829,2.42-3.51,4.669l3.132,22.114c0.318,2.249,2.419,3.829,4.668,3.51l52.47-7.433
				c2.249-0.32,3.829-2.42,3.51-4.669l-1.385-9.779L-183.091,44.516z"/>
		</g>
		<g>
			<path fill="#FFFFFF" d="M-183.091,42.516c-4.055,0.573-7.82-2.258-8.394-6.313l-1.285-9.071l-6.521,0.924
				c-2.25,0.319-3.829,2.42-3.51,4.669l3.132,22.114c0.318,2.249,2.419,3.829,4.668,3.51l52.47-7.433
				c2.249-0.32,3.829-2.42,3.51-4.669l-1.385-9.779L-183.091,42.516z"/>
		</g>
	</g>
	<linearGradient id="SVGID_2_" gradientUnits="userSpaceOnUse" x1="-171.9233" y1="13.6055" x2="-130.1821" y2="13.6055">
		<stop  offset="0" style="stop-color:#EA581D"/>
		<stop  offset="0.0379" style="stop-color:#EA5A1D"/>
		<stop  offset="0.6334" style="stop-color:#EE701C"/>
		<stop  offset="1" style="stop-color:#EF781C"/>
	</linearGradient>
	<path display="inline" fill="url(#SVGID_2_)" d="M-135.013,7.55c-0.062-0.414-0.408-0.716-0.781-0.716
		c-0.033,0-34.495,2.965-35.461,2.996s-0.787-0.595-0.079-0.695s35.052-4.966,35.052-4.966c0.163-0.023,0.327-0.034,0.488-0.034
		c1.723,0,3.204,1.286,3.446,2.992c0,0,2.031,14.361,2.149,15.173s-0.397,1.177-0.684,0.143S-135.013,7.55-135.013,7.55z"/>
</g>
</svg>
