<svg xmlns="http://www.w3.org/2000/svg" width="86.682" height="64"><path fill="#fff" d="M26.419 66c-4.53 0-16.478-16.806-25.703-30.905l-.716-1.095.716-1.095c9.225-14.099 21.173-30.905 25.703-30.905h50.263c5.514 0 10 4.485 10 10v44c0 5.515-4.486 10-10 10h-50.263z" opacity=".3"/><path fill="#9C5644" d="M26.419 64c-4.53 0-16.478-16.806-25.703-30.905l-.716-1.095.716-1.095c9.225-14.099 21.173-30.905 25.703-30.905h50.263c5.514 0 10 4.485 10 10v44c0 5.515-4.486 10-10 10h-50.263z"/><linearGradient id="a" gradientUnits="userSpaceOnUse" x1="43.536" y1="62" x2="43.536" y2="2"><stop offset="0" stop-color="#D45F43"/><stop offset=".345" stop-color="#D66B44"/><stop offset=".75" stop-color="#D87744"/><stop offset="1" stop-color="#D87B44"/></linearGradient><path fill="url(#a)" d="M76.682 2h-50.263c-4.399 0-24.029 30-24.029 30s19.63 30 24.029 30h50.263c4.4 0 8-3.601 8-8v-44c0-4.399-3.6-8-8-8z"/><path fill="#0D0F0F" d="M49.486 18.918c-1.141 1.112-12.279 12.808-12.279 12.808-.607.594-.912 1.371-.912 2.148 0 .779.305 1.557.912 2.149 0 0 11.139 11.695 12.279 12.808 1.139 1.111 3.189 1.188 4.406 0 1.215-1.187 1.313-2.843-.001-4.298l-10.218-10.659 10.219-10.657c1.313-1.457 1.216-3.112.001-4.299-1.217-1.187-3.268-1.111-4.407 0z" opacity=".3"/><path fill="#fff" d="M49.486 16.918c-1.141 1.112-12.279 12.808-12.279 12.808-.607.594-.912 1.371-.912 2.148 0 .779.305 1.557.912 2.149 0 0 11.139 11.695 12.279 12.808 1.139 1.111 3.189 1.188 4.406 0 1.215-1.187 1.313-2.843-.001-4.298l-10.218-10.659 10.219-10.657c1.313-1.457 1.216-3.112.001-4.299-1.217-1.187-3.268-1.111-4.407 0z"/></svg>