<?xml version="1.0" encoding="utf-8"?>
<!-- Generator: Adobe Illustrator 16.0.0, SVG Export Plug-In . SVG Version: 6.00 Build 0)  -->
<!DOCTYPE svg PUBLIC "-//W3C//DTD SVG 1.1//EN" "http://www.w3.org/Graphics/SVG/1.1/DTD/svg11.dtd">
<svg version="1.1" id="Слой_1" xmlns="http://www.w3.org/2000/svg" xmlns:xlink="http://www.w3.org/1999/xlink" x="0px" y="0px"
	 width="86.682px" height="66.684px" viewBox="0 0 86.682 66.684" enable-background="new 0 0 86.682 66.684" xml:space="preserve">
<g>
	<g>
		<g opacity="0.3">
			<path fill="#FFFFFF" d="M26.419,67.342c-4.53,0-16.479-16.807-25.703-30.906L0,35.342l0.716-1.096
				C9.942,20.148,21.889,3.342,26.419,3.342h50.263c5.514,0,10,4.486,10,10v44c0,5.514-4.486,10-10,10H26.419L26.419,67.342z"/>
		</g>
		<g>
			<path fill="#A44A11" d="M26.419,65.342c-4.53,0-16.479-16.807-25.703-30.906L0,33.342l0.716-1.095
				c9.226-14.1,21.173-30.905,25.703-30.905h50.263c5.514,0,10,4.486,10,10v44c0,5.514-4.486,10-10,10H26.419L26.419,65.342z"/>
		</g>
	</g>
	
		<linearGradient id="SVGID_1_" gradientUnits="userSpaceOnUse" x1="199.4661" y1="-276.3469" x2="199.4661" y2="-216.3474" gradientTransform="matrix(1 0 0 -1 -155.9297 -213.0054)">
		<stop  offset="0" style="stop-color:#E1781C"/>
		<stop  offset="0.02" style="stop-color:#E06F1A"/>
		<stop  offset="0.6266" style="stop-color:#DE5614"/>
		<stop  offset="1" style="stop-color:#DE5614"/>
	</linearGradient>
	<path fill="url(#SVGID_1_)" d="M76.682,3.342H26.419c-4.399,0-24.029,30-24.029,30s19.63,30,24.029,30h50.263c4.4,0,8-3.6,8-8v-44
		C84.682,6.942,81.082,3.342,76.682,3.342z"/>
	<g>
		<g opacity="0.3">
			<path d="M49.487,20.26c-1.141,1.112-12.278,12.808-12.278,12.808c-0.607,0.595-0.912,1.371-0.912,2.149s0.305,1.556,0.912,2.148
				c0,0,11.139,11.695,12.278,12.808c1.14,1.111,3.189,1.188,4.406,0c1.215-1.187,1.313-2.842-0.001-4.297l-10.219-10.66
				l10.219-10.658c1.313-1.457,1.216-3.112,0.001-4.299C52.676,19.073,50.625,19.148,49.487,20.26z"/>
		</g>
		<g>
			<path fill="#FFFFFF" d="M49.487,18.26c-1.141,1.112-12.278,12.808-12.278,12.808c-0.607,0.595-0.912,1.371-0.912,2.149
				s0.305,1.556,0.912,2.148c0,0,11.139,11.695,12.278,12.808c1.14,1.111,3.189,1.188,4.406,0c1.215-1.187,1.313-2.842-0.001-4.297
				l-10.219-10.66l10.219-10.658c1.313-1.457,1.216-3.112,0.001-4.299C52.676,17.073,50.625,17.148,49.487,18.26z"/>
		</g>
	</g>
</g>
</svg>
