<?xml version="1.0" encoding="utf-8"?>
<!-- Generator: Adobe Illustrator 15.0.0, SVG Export Plug-In . SVG Version: 6.00 Build 0)  -->
<!DOCTYPE svg PUBLIC "-//W3C//DTD SVG 1.1//EN" "http://www.w3.org/Graphics/SVG/1.1/DTD/svg11.dtd">
<svg version="1.1" id="Layer_1" xmlns:ev="http://www.w3.org/2001/xml-events"
	 xmlns="http://www.w3.org/2000/svg" xmlns:xlink="http://www.w3.org/1999/xlink" x="0px" y="0px" width="189px" height="189px"
	 viewBox="36 36 189 189" enable-background="new 36 36 189 189" xml:space="preserve">
<desc></desc>
<g>
	<g>
		<rect id="p" x="36" y="36" fill="#AB1100" width="9" height="9"/>
	</g>
	<g>
		<rect id="p_1_" x="36" y="45" fill="#AB1100" width="9" height="9"/>
	</g>
	<g>
		<rect id="p_2_" x="36" y="54" fill="#AB1100" width="9" height="9"/>
	</g>
	<g>
		<rect id="p_3_" x="36" y="63" fill="#AB1100" width="9" height="9"/>
	</g>
	<g>
		<rect id="p_4_" x="36" y="72" fill="#AB1100" width="9" height="9"/>
	</g>
	<g>
		<rect id="p_5_" x="36" y="81" fill="#AB1100" width="9" height="9"/>
	</g>
	<g>
		<rect id="p_6_" x="36" y="90" fill="#AB1100" width="9" height="9"/>
	</g>
	<g>
		<rect id="p_7_" x="36" y="108" fill="#AB1100" width="9" height="9"/>
	</g>
	<g>
		<rect id="p_8_" x="36" y="117" fill="#AB1100" width="9" height="9"/>
	</g>
	<g>
		<rect id="p_9_" x="36" y="126" fill="#AB1100" width="9" height="9"/>
	</g>
	<g>
		<rect id="p_10_" x="36" y="162" fill="#AB1100" width="9" height="9"/>
	</g>
	<g>
		<rect id="p_11_" x="36" y="171" fill="#AB1100" width="9" height="9"/>
	</g>
	<g>
		<rect id="p_12_" x="36" y="180" fill="#AB1100" width="9" height="9"/>
	</g>
	<g>
		<rect id="p_13_" x="36" y="189" fill="#AB1100" width="9" height="9"/>
	</g>
	<g>
		<rect id="p_14_" x="36" y="198" fill="#AB1100" width="9" height="9"/>
	</g>
	<g>
		<rect id="p_15_" x="36" y="207" fill="#AB1100" width="9" height="9"/>
	</g>
	<g>
		<rect id="p_16_" x="36" y="216" fill="#AB1100" width="9" height="9"/>
	</g>
	<g>
		<rect id="p_17_" x="45" y="36" fill="#AB1100" width="9" height="9"/>
	</g>
	<g>
		<rect id="p_18_" x="45" y="90" fill="#AB1100" width="9" height="9"/>
	</g>
	<g>
		<rect id="p_19_" x="45" y="126" fill="#AB1100" width="9" height="9"/>
	</g>
	<g>
		<rect id="p_20_" x="45" y="135" fill="#AB1100" width="9" height="9"/>
	</g>
	<g>
		<rect id="p_21_" x="45" y="162" fill="#AB1100" width="9" height="9"/>
	</g>
	<g>
		<rect id="p_22_" x="45" y="216" fill="#AB1100" width="9" height="9"/>
	</g>
	<g>
		<rect id="p_23_" x="54" y="36" fill="#AB1100" width="9" height="9"/>
	</g>
	<g>
		<rect id="p_24_" x="54" y="54" fill="#AB1100" width="9" height="9"/>
	</g>
	<g>
		<rect id="p_25_" x="54" y="63" fill="#AB1100" width="9" height="9"/>
	</g>
	<g>
		<rect id="p_26_" x="54" y="72" fill="#AB1100" width="9" height="9"/>
	</g>
	<g>
		<rect id="p_27_" x="54" y="90" fill="#AB1100" width="9" height="9"/>
	</g>
	<g>
		<rect id="p_28_" x="54" y="135" fill="#AB1100" width="9" height="9"/>
	</g>
	<g>
		<rect id="p_29_" x="54" y="144" fill="#AB1100" width="9" height="9"/>
	</g>
	<g>
		<rect id="p_30_" x="54" y="162" fill="#AB1100" width="9" height="9"/>
	</g>
	<g>
		<rect id="p_31_" x="54" y="180" fill="#AB1100" width="9" height="9"/>
	</g>
	<g>
		<rect id="p_32_" x="54" y="189" fill="#AB1100" width="9" height="9"/>
	</g>
	<g>
		<rect id="p_33_" x="54" y="198" fill="#AB1100" width="9" height="9"/>
	</g>
	<g>
		<rect id="p_34_" x="54" y="216" fill="#AB1100" width="9" height="9"/>
	</g>
	<g>
		<rect id="p_35_" x="63" y="36" fill="#AB1100" width="9" height="9"/>
	</g>
	<g>
		<rect id="p_36_" x="63" y="54" fill="#AB1100" width="9" height="9"/>
	</g>
	<g>
		<rect id="p_37_" x="63" y="63" fill="#AB1100" width="9" height="9"/>
	</g>
	<g>
		<rect id="p_38_" x="63" y="72" fill="#AB1100" width="9" height="9"/>
	</g>
	<g>
		<rect id="p_39_" x="63" y="90" fill="#AB1100" width="9" height="9"/>
	</g>
	<g>
		<rect id="p_40_" x="63" y="108" fill="#AB1100" width="9" height="9"/>
	</g>
	<g>
		<rect id="p_41_" x="63" y="117" fill="#AB1100" width="9" height="9"/>
	</g>
	<g>
		<rect id="p_42_" x="63" y="135" fill="#AB1100" width="9" height="9"/>
	</g>
	<g>
		<rect id="p_43_" x="63" y="144" fill="#AB1100" width="9" height="9"/>
	</g>
	<g>
		<rect id="p_44_" x="63" y="162" fill="#AB1100" width="9" height="9"/>
	</g>
	<g>
		<rect id="p_45_" x="63" y="180" fill="#AB1100" width="9" height="9"/>
	</g>
	<g>
		<rect id="p_46_" x="63" y="189" fill="#AB1100" width="9" height="9"/>
	</g>
	<g>
		<rect id="p_47_" x="63" y="198" fill="#AB1100" width="9" height="9"/>
	</g>
	<g>
		<rect id="p_48_" x="63" y="216" fill="#AB1100" width="9" height="9"/>
	</g>
	<g>
		<rect id="p_49_" x="72" y="36" fill="#AB1100" width="9" height="9"/>
	</g>
	<g>
		<rect id="p_50_" x="72" y="54" fill="#AB1100" width="9" height="9"/>
	</g>
	<g>
		<rect id="p_51_" x="72" y="63" fill="#AB1100" width="9" height="9"/>
	</g>
	<g>
		<rect id="p_52_" x="72" y="72" fill="#AB1100" width="9" height="9"/>
	</g>
	<g>
		<rect id="p_53_" x="72" y="90" fill="#AB1100" width="9" height="9"/>
	</g>
	<g>
		<rect id="p_54_" x="72" y="108" fill="#AB1100" width="9" height="9"/>
	</g>
	<g>
		<rect id="p_55_" x="72" y="117" fill="#AB1100" width="9" height="9"/>
	</g>
	<g>
		<rect id="p_56_" x="72" y="126" fill="#AB1100" width="9" height="9"/>
	</g>
	<g>
		<rect id="p_57_" x="72" y="162" fill="#AB1100" width="9" height="9"/>
	</g>
	<g>
		<rect id="p_58_" x="72" y="180" fill="#AB1100" width="9" height="9"/>
	</g>
	<g>
		<rect id="p_59_" x="72" y="189" fill="#AB1100" width="9" height="9"/>
	</g>
	<g>
		<rect id="p_60_" x="72" y="198" fill="#AB1100" width="9" height="9"/>
	</g>
	<g>
		<rect id="p_61_" x="72" y="216" fill="#AB1100" width="9" height="9"/>
	</g>
	<g>
		<rect id="p_62_" x="81" y="36" fill="#AB1100" width="9" height="9"/>
	</g>
	<g>
		<rect id="p_63_" x="81" y="90" fill="#AB1100" width="9" height="9"/>
	</g>
	<g>
		<rect id="p_64_" x="81" y="108" fill="#AB1100" width="9" height="9"/>
	</g>
	<g>
		<rect id="p_65_" x="81" y="126" fill="#AB1100" width="9" height="9"/>
	</g>
	<g>
		<rect id="p_66_" x="81" y="144" fill="#AB1100" width="9" height="9"/>
	</g>
	<g>
		<rect id="p_67_" x="81" y="162" fill="#AB1100" width="9" height="9"/>
	</g>
	<g>
		<rect id="p_68_" x="81" y="216" fill="#AB1100" width="9" height="9"/>
	</g>
	<g>
		<rect id="p_69_" x="90" y="36" fill="#AB1100" width="9" height="9"/>
	</g>
	<g>
		<rect id="p_70_" x="90" y="45" fill="#AB1100" width="9" height="9"/>
	</g>
	<g>
		<rect id="p_71_" x="90" y="54" fill="#AB1100" width="9" height="9"/>
	</g>
	<g>
		<rect id="p_72_" x="90" y="63" fill="#AB1100" width="9" height="9"/>
	</g>
	<g>
		<rect id="p_73_" x="90" y="72" fill="#AB1100" width="9" height="9"/>
	</g>
	<g>
		<rect id="p_74_" x="90" y="81" fill="#AB1100" width="9" height="9"/>
	</g>
	<g>
		<rect id="p_75_" x="90" y="90" fill="#AB1100" width="9" height="9"/>
	</g>
	<g>
		<rect id="p_76_" x="90" y="108" fill="#AB1100" width="9" height="9"/>
	</g>
	<g>
		<rect id="p_77_" x="90" y="126" fill="#AB1100" width="9" height="9"/>
	</g>
	<g>
		<rect id="p_78_" x="90" y="144" fill="#AB1100" width="9" height="9"/>
	</g>
	<g>
		<rect id="p_79_" x="90" y="162" fill="#AB1100" width="9" height="9"/>
	</g>
	<g>
		<rect id="p_80_" x="90" y="171" fill="#AB1100" width="9" height="9"/>
	</g>
	<g>
		<rect id="p_81_" x="90" y="180" fill="#AB1100" width="9" height="9"/>
	</g>
	<g>
		<rect id="p_82_" x="90" y="189" fill="#AB1100" width="9" height="9"/>
	</g>
	<g>
		<rect id="p_83_" x="90" y="198" fill="#AB1100" width="9" height="9"/>
	</g>
	<g>
		<rect id="p_84_" x="90" y="207" fill="#AB1100" width="9" height="9"/>
	</g>
	<g>
		<rect id="p_85_" x="90" y="216" fill="#AB1100" width="9" height="9"/>
	</g>
	<g>
		<rect id="p_86_" x="99" y="108" fill="#AB1100" width="9" height="9"/>
	</g>
	<g>
		<rect id="p_87_" x="99" y="117" fill="#AB1100" width="9" height="9"/>
	</g>
	<g>
		<rect id="p_88_" x="99" y="126" fill="#AB1100" width="9" height="9"/>
	</g>
	<g>
		<rect id="p_89_" x="99" y="135" fill="#AB1100" width="9" height="9"/>
	</g>
	<g>
		<rect id="p_90_" x="108" y="36" fill="#AB1100" width="9" height="9"/>
	</g>
	<g>
		<rect id="p_91_" x="108" y="45" fill="#AB1100" width="9" height="9"/>
	</g>
	<g>
		<rect id="p_92_" x="108" y="54" fill="#AB1100" width="9" height="9"/>
	</g>
	<g>
		<rect id="p_93_" x="108" y="72" fill="#AB1100" width="9" height="9"/>
	</g>
	<g>
		<rect id="p_94_" x="108" y="90" fill="#AB1100" width="9" height="9"/>
	</g>
	<g>
		<rect id="p_95_" x="108" y="108" fill="#AB1100" width="9" height="9"/>
	</g>
	<g>
		<rect id="p_96_" x="108" y="117" fill="#AB1100" width="9" height="9"/>
	</g>
	<g>
		<rect id="p_97_" x="108" y="135" fill="#AB1100" width="9" height="9"/>
	</g>
	<g>
		<rect id="p_98_" x="108" y="153" fill="#AB1100" width="9" height="9"/>
	</g>
	<g>
		<rect id="p_99_" x="108" y="162" fill="#AB1100" width="9" height="9"/>
	</g>
	<g>
		<rect id="p_100_" x="108" y="171" fill="#AB1100" width="9" height="9"/>
	</g>
	<g>
		<rect id="p_101_" x="108" y="180" fill="#AB1100" width="9" height="9"/>
	</g>
	<g>
		<rect id="p_102_" x="108" y="189" fill="#AB1100" width="9" height="9"/>
	</g>
	<g>
		<rect id="p_103_" x="108" y="216" fill="#AB1100" width="9" height="9"/>
	</g>
	<g>
		<rect id="p_104_" x="117" y="45" fill="#AB1100" width="9" height="9"/>
	</g>
	<g>
		<rect id="p_105_" x="117" y="54" fill="#AB1100" width="9" height="9"/>
	</g>
	<g>
		<rect id="p_106_" x="117" y="81" fill="#AB1100" width="9" height="9"/>
	</g>
	<g>
		<rect id="p_107_" x="117" y="99" fill="#AB1100" width="9" height="9"/>
	</g>
	<g>
		<rect id="p_108_" x="117" y="117" fill="#AB1100" width="9" height="9"/>
	</g>
	<g>
		<rect id="p_109_" x="117" y="135" fill="#AB1100" width="9" height="9"/>
	</g>
	<g>
		<rect id="p_110_" x="117" y="144" fill="#AB1100" width="9" height="9"/>
	</g>
	<g>
		<rect id="p_111_" x="117" y="153" fill="#AB1100" width="9" height="9"/>
	</g>
	<g>
		<rect id="p_112_" x="117" y="162" fill="#AB1100" width="9" height="9"/>
	</g>
	<g>
		<rect id="p_113_" x="117" y="198" fill="#AB1100" width="9" height="9"/>
	</g>
	<g>
		<rect id="p_114_" x="117" y="207" fill="#AB1100" width="9" height="9"/>
	</g>
	<g>
		<rect id="p_115_" x="126" y="45" fill="#AB1100" width="9" height="9"/>
	</g>
	<g>
		<rect id="p_116_" x="126" y="63" fill="#AB1100" width="9" height="9"/>
	</g>
	<g>
		<rect id="p_117_" x="126" y="81" fill="#AB1100" width="9" height="9"/>
	</g>
	<g>
		<rect id="p_118_" x="126" y="90" fill="#AB1100" width="9" height="9"/>
	</g>
	<g>
		<rect id="p_119_" x="126" y="99" fill="#AB1100" width="9" height="9"/>
	</g>
	<g>
		<rect id="p_120_" x="126" y="117" fill="#AB1100" width="9" height="9"/>
	</g>
	<g>
		<rect id="p_121_" x="126" y="153" fill="#AB1100" width="9" height="9"/>
	</g>
	<g>
		<rect id="p_122_" x="126" y="162" fill="#AB1100" width="9" height="9"/>
	</g>
	<g>
		<rect id="p_123_" x="126" y="171" fill="#AB1100" width="9" height="9"/>
	</g>
	<g>
		<rect id="p_124_" x="126" y="189" fill="#AB1100" width="9" height="9"/>
	</g>
	<g>
		<rect id="p_125_" x="126" y="198" fill="#AB1100" width="9" height="9"/>
	</g>
	<g>
		<rect id="p_126_" x="135" y="81" fill="#AB1100" width="9" height="9"/>
	</g>
	<g>
		<rect id="p_127_" x="135" y="99" fill="#AB1100" width="9" height="9"/>
	</g>
	<g>
		<rect id="p_128_" x="135" y="135" fill="#AB1100" width="9" height="9"/>
	</g>
	<g>
		<rect id="p_129_" x="135" y="153" fill="#AB1100" width="9" height="9"/>
	</g>
	<g>
		<rect id="p_130_" x="135" y="171" fill="#AB1100" width="9" height="9"/>
	</g>
	<g>
		<rect id="p_131_" x="135" y="180" fill="#AB1100" width="9" height="9"/>
	</g>
	<g>
		<rect id="p_132_" x="135" y="189" fill="#AB1100" width="9" height="9"/>
	</g>
	<g>
		<rect id="p_133_" x="135" y="216" fill="#AB1100" width="9" height="9"/>
	</g>
	<g>
		<rect id="p_134_" x="144" y="45" fill="#AB1100" width="9" height="9"/>
	</g>
	<g>
		<rect id="p_135_" x="144" y="54" fill="#AB1100" width="9" height="9"/>
	</g>
	<g>
		<rect id="p_136_" x="144" y="72" fill="#AB1100" width="9" height="9"/>
	</g>
	<g>
		<rect id="p_137_" x="144" y="81" fill="#AB1100" width="9" height="9"/>
	</g>
	<g>
		<rect id="p_138_" x="144" y="90" fill="#AB1100" width="9" height="9"/>
	</g>
	<g>
		<rect id="p_139_" x="144" y="99" fill="#AB1100" width="9" height="9"/>
	</g>
	<g>
		<rect id="p_140_" x="144" y="108" fill="#AB1100" width="9" height="9"/>
	</g>
	<g>
		<rect id="p_141_" x="144" y="117" fill="#AB1100" width="9" height="9"/>
	</g>
	<g>
		<rect id="p_142_" x="144" y="153" fill="#AB1100" width="9" height="9"/>
	</g>
	<g>
		<rect id="p_143_" x="144" y="162" fill="#AB1100" width="9" height="9"/>
	</g>
	<g>
		<rect id="p_144_" x="144" y="171" fill="#AB1100" width="9" height="9"/>
	</g>
	<g>
		<rect id="p_145_" x="144" y="180" fill="#AB1100" width="9" height="9"/>
	</g>
	<g>
		<rect id="p_146_" x="144" y="189" fill="#AB1100" width="9" height="9"/>
	</g>
	<g>
		<rect id="p_147_" x="153" y="108" fill="#AB1100" width="9" height="9"/>
	</g>
	<g>
		<rect id="p_148_" x="153" y="126" fill="#AB1100" width="9" height="9"/>
	</g>
	<g>
		<rect id="p_149_" x="153" y="162" fill="#AB1100" width="9" height="9"/>
	</g>
	<g>
		<rect id="p_150_" x="153" y="171" fill="#AB1100" width="9" height="9"/>
	</g>
	<g>
		<rect id="p_151_" x="153" y="207" fill="#AB1100" width="9" height="9"/>
	</g>
	<g>
		<rect id="p_152_" x="162" y="36" fill="#AB1100" width="9" height="9"/>
	</g>
	<g>
		<rect id="p_153_" x="162" y="45" fill="#AB1100" width="9" height="9"/>
	</g>
	<g>
		<rect id="p_154_" x="162" y="54" fill="#AB1100" width="9" height="9"/>
	</g>
	<g>
		<rect id="p_155_" x="162" y="63" fill="#AB1100" width="9" height="9"/>
	</g>
	<g>
		<rect id="p_156_" x="162" y="72" fill="#AB1100" width="9" height="9"/>
	</g>
	<g>
		<rect id="p_157_" x="162" y="81" fill="#AB1100" width="9" height="9"/>
	</g>
	<g>
		<rect id="p_158_" x="162" y="90" fill="#AB1100" width="9" height="9"/>
	</g>
	<g>
		<rect id="p_159_" x="162" y="117" fill="#AB1100" width="9" height="9"/>
	</g>
	<g>
		<rect id="p_160_" x="162" y="126" fill="#AB1100" width="9" height="9"/>
	</g>
	<g>
		<rect id="p_161_" x="162" y="144" fill="#AB1100" width="9" height="9"/>
	</g>
	<g>
		<rect id="p_162_" x="162" y="162" fill="#AB1100" width="9" height="9"/>
	</g>
	<g>
		<rect id="p_163_" x="162" y="180" fill="#AB1100" width="9" height="9"/>
	</g>
	<g>
		<rect id="p_164_" x="162" y="198" fill="#AB1100" width="9" height="9"/>
	</g>
	<g>
		<rect id="p_165_" x="162" y="207" fill="#AB1100" width="9" height="9"/>
	</g>
	<g>
		<rect id="p_166_" x="171" y="36" fill="#AB1100" width="9" height="9"/>
	</g>
	<g>
		<rect id="p_167_" x="171" y="90" fill="#AB1100" width="9" height="9"/>
	</g>
	<g>
		<rect id="p_168_" x="171" y="153" fill="#AB1100" width="9" height="9"/>
	</g>
	<g>
		<rect id="p_169_" x="171" y="162" fill="#AB1100" width="9" height="9"/>
	</g>
	<g>
		<rect id="p_170_" x="171" y="171" fill="#AB1100" width="9" height="9"/>
	</g>
	<g>
		<rect id="p_171_" x="171" y="180" fill="#AB1100" width="9" height="9"/>
	</g>
	<g>
		<rect id="p_172_" x="180" y="36" fill="#AB1100" width="9" height="9"/>
	</g>
	<g>
		<rect id="p_173_" x="180" y="54" fill="#AB1100" width="9" height="9"/>
	</g>
	<g>
		<rect id="p_174_" x="180" y="63" fill="#AB1100" width="9" height="9"/>
	</g>
	<g>
		<rect id="p_175_" x="180" y="72" fill="#AB1100" width="9" height="9"/>
	</g>
	<g>
		<rect id="p_176_" x="180" y="90" fill="#AB1100" width="9" height="9"/>
	</g>
	<g>
		<rect id="p_177_" x="180" y="108" fill="#AB1100" width="9" height="9"/>
	</g>
	<g>
		<rect id="p_178_" x="180" y="117" fill="#AB1100" width="9" height="9"/>
	</g>
	<g>
		<rect id="p_179_" x="180" y="126" fill="#AB1100" width="9" height="9"/>
	</g>
	<g>
		<rect id="p_180_" x="180" y="162" fill="#AB1100" width="9" height="9"/>
	</g>
	<g>
		<rect id="p_181_" x="180" y="171" fill="#AB1100" width="9" height="9"/>
	</g>
	<g>
		<rect id="p_182_" x="180" y="189" fill="#AB1100" width="9" height="9"/>
	</g>
	<g>
		<rect id="p_183_" x="180" y="207" fill="#AB1100" width="9" height="9"/>
	</g>
	<g>
		<rect id="p_184_" x="189" y="36" fill="#AB1100" width="9" height="9"/>
	</g>
	<g>
		<rect id="p_185_" x="189" y="54" fill="#AB1100" width="9" height="9"/>
	</g>
	<g>
		<rect id="p_186_" x="189" y="63" fill="#AB1100" width="9" height="9"/>
	</g>
	<g>
		<rect id="p_187_" x="189" y="72" fill="#AB1100" width="9" height="9"/>
	</g>
	<g>
		<rect id="p_188_" x="189" y="90" fill="#AB1100" width="9" height="9"/>
	</g>
	<g>
		<rect id="p_189_" x="189" y="117" fill="#AB1100" width="9" height="9"/>
	</g>
	<g>
		<rect id="p_190_" x="189" y="144" fill="#AB1100" width="9" height="9"/>
	</g>
	<g>
		<rect id="p_191_" x="189" y="162" fill="#AB1100" width="9" height="9"/>
	</g>
	<g>
		<rect id="p_192_" x="189" y="171" fill="#AB1100" width="9" height="9"/>
	</g>
	<g>
		<rect id="p_193_" x="189" y="180" fill="#AB1100" width="9" height="9"/>
	</g>
	<g>
		<rect id="p_194_" x="189" y="189" fill="#AB1100" width="9" height="9"/>
	</g>
	<g>
		<rect id="p_195_" x="198" y="36" fill="#AB1100" width="9" height="9"/>
	</g>
	<g>
		<rect id="p_196_" x="198" y="54" fill="#AB1100" width="9" height="9"/>
	</g>
	<g>
		<rect id="p_197_" x="198" y="63" fill="#AB1100" width="9" height="9"/>
	</g>
	<g>
		<rect id="p_198_" x="198" y="72" fill="#AB1100" width="9" height="9"/>
	</g>
	<g>
		<rect id="p_199_" x="198" y="90" fill="#AB1100" width="9" height="9"/>
	</g>
	<g>
		<rect id="p_200_" x="198" y="108" fill="#AB1100" width="9" height="9"/>
	</g>
	<g>
		<rect id="p_201_" x="198" y="117" fill="#AB1100" width="9" height="9"/>
	</g>
	<g>
		<rect id="p_202_" x="198" y="126" fill="#AB1100" width="9" height="9"/>
	</g>
	<g>
		<rect id="p_203_" x="198" y="135" fill="#AB1100" width="9" height="9"/>
	</g>
	<g>
		<rect id="p_204_" x="198" y="153" fill="#AB1100" width="9" height="9"/>
	</g>
	<g>
		<rect id="p_205_" x="198" y="171" fill="#AB1100" width="9" height="9"/>
	</g>
	<g>
		<rect id="p_206_" x="198" y="207" fill="#AB1100" width="9" height="9"/>
	</g>
	<g>
		<rect id="p_207_" x="198" y="216" fill="#AB1100" width="9" height="9"/>
	</g>
	<g>
		<rect id="p_208_" x="207" y="36" fill="#AB1100" width="9" height="9"/>
	</g>
	<g>
		<rect id="p_209_" x="207" y="90" fill="#AB1100" width="9" height="9"/>
	</g>
	<g>
		<rect id="p_210_" x="207" y="108" fill="#AB1100" width="9" height="9"/>
	</g>
	<g>
		<rect id="p_211_" x="207" y="117" fill="#AB1100" width="9" height="9"/>
	</g>
	<g>
		<rect id="p_212_" x="207" y="126" fill="#AB1100" width="9" height="9"/>
	</g>
	<g>
		<rect id="p_213_" x="207" y="153" fill="#AB1100" width="9" height="9"/>
	</g>
	<g>
		<rect id="p_214_" x="207" y="180" fill="#AB1100" width="9" height="9"/>
	</g>
	<g>
		<rect id="p_215_" x="207" y="198" fill="#AB1100" width="9" height="9"/>
	</g>
	<g>
		<rect id="p_216_" x="207" y="207" fill="#AB1100" width="9" height="9"/>
	</g>
	<g>
		<rect id="p_217_" x="216" y="36" fill="#AB1100" width="9" height="9"/>
	</g>
	<g>
		<rect id="p_218_" x="216" y="45" fill="#AB1100" width="9" height="9"/>
	</g>
	<g>
		<rect id="p_219_" x="216" y="54" fill="#AB1100" width="9" height="9"/>
	</g>
	<g>
		<rect id="p_220_" x="216" y="63" fill="#AB1100" width="9" height="9"/>
	</g>
	<g>
		<rect id="p_221_" x="216" y="72" fill="#AB1100" width="9" height="9"/>
	</g>
	<g>
		<rect id="p_222_" x="216" y="81" fill="#AB1100" width="9" height="9"/>
	</g>
	<g>
		<rect id="p_223_" x="216" y="90" fill="#AB1100" width="9" height="9"/>
	</g>
	<g>
		<rect id="p_224_" x="216" y="108" fill="#AB1100" width="9" height="9"/>
	</g>
	<g>
		<rect id="p_225_" x="216" y="126" fill="#AB1100" width="9" height="9"/>
	</g>
	<g>
		<rect id="p_226_" x="216" y="135" fill="#AB1100" width="9" height="9"/>
	</g>
	<g>
		<rect id="p_227_" x="216" y="144" fill="#AB1100" width="9" height="9"/>
	</g>
	<g>
		<rect id="p_228_" x="216" y="171" fill="#AB1100" width="9" height="9"/>
	</g>
	<g>
		<rect id="p_229_" x="216" y="180" fill="#AB1100" width="9" height="9"/>
	</g>
	<g>
		<rect id="p_230_" x="216" y="198" fill="#AB1100" width="9" height="9"/>
	</g>
	<g>
		<rect id="p_231_" x="216" y="207" fill="#AB1100" width="9" height="9"/>
	</g>
</g>
</svg>
